<svg width="1440" height="909" viewBox="0 0 1440 909" fill="none" xmlns="http://www.w3.org/2000/svg">
<path d="M55.5 469C56.8807 469 58 467.881 58 466.5C58 465.119 56.8807 464 55.5 464C54.1193 464 53 465.119 53 466.5C53 467.881 54.1193 469 55.5 469Z" fill="#97B1A8" fill-opacity="0.4"/>
<path d="M55.5 89C56.8807 89 58 87.8807 58 86.5C58 85.1193 56.8807 84 55.5 84C54.1193 84 53 85.1193 53 86.5C53 87.8807 54.1193 89 55.5 89Z" fill="#97B1A8" fill-opacity="0.4"/>
<path d="M435.5 469C436.881 469 438 467.881 438 466.5C438 465.119 436.881 464 435.5 464C434.119 464 433 465.119 433 466.5C433 467.881 434.119 469 435.5 469Z" fill="#97B1A8" fill-opacity="0.4"/>
<path d="M435.5 89C436.881 89 438 87.8807 438 86.5C438 85.1193 436.881 84 435.5 84C434.119 84 433 85.1193 433 86.5C433 87.8807 434.119 89 435.5 89Z" fill="#97B1A8" fill-opacity="0.4"/>
<path d="M55.5 659C56.8807 659 58 657.881 58 656.5C58 655.119 56.8807 654 55.5 654C54.1193 654 53 655.119 53 656.5C53 657.881 54.1193 659 55.5 659Z" fill="#97B1A8" fill-opacity="0.4"/>
<path d="M55.5 279C56.8807 279 58 277.881 58 276.5C58 275.119 56.8807 274 55.5 274C54.1193 274 53 275.119 53 276.5C53 277.881 54.1193 279 55.5 279Z" fill="#97B1A8" fill-opacity="0.4"/>
<path d="M435.5 659C436.881 659 438 657.881 438 656.5C438 655.119 436.881 654 435.5 654C434.119 654 433 655.119 433 656.5C433 657.881 434.119 659 435.5 659Z" fill="#97B1A8" fill-opacity="0.4"/>
<path d="M435.5 849C436.881 849 438 847.881 438 846.5C438 845.119 436.881 844 435.5 844C434.119 844 433 845.119 433 846.5C433 847.881 434.119 849 435.5 849Z" fill="#97B1A8" fill-opacity="0.4"/>
<path d="M435.5 279C436.881 279 438 277.881 438 276.5C438 275.119 436.881 274 435.5 274C434.119 274 433 275.119 433 276.5C433 277.881 434.119 279 435.5 279Z" fill="#97B1A8" fill-opacity="0.4"/>
<path d="M245.5 469C246.881 469 248 467.881 248 466.5C248 465.119 246.881 464 245.5 464C244.119 464 243 465.119 243 466.5C243 467.881 244.119 469 245.5 469Z" fill="#97B1A8" fill-opacity="0.4"/>
<path d="M245.5 89C246.881 89 248 87.8807 248 86.5C248 85.1193 246.881 84 245.5 84C244.119 84 243 85.1193 243 86.5C243 87.8807 244.119 89 245.5 89Z" fill="#97B1A8" fill-opacity="0.4"/>
<path d="M625.5 469C626.881 469 628 467.881 628 466.5C628 465.119 626.881 464 625.5 464C624.119 464 623 465.119 623 466.5C623 467.881 624.119 469 625.5 469Z" fill="#97B1A8" fill-opacity="0.4"/>
<path d="M625.5 89C626.881 89 628 87.8807 628 86.5C628 85.1193 626.881 84 625.5 84C624.119 84 623 85.1193 623 86.5C623 87.8807 624.119 89 625.5 89Z" fill="#97B1A8" fill-opacity="0.4"/>
<path d="M245.5 659C246.881 659 248 657.881 248 656.5C248 655.119 246.881 654 245.5 654C244.119 654 243 655.119 243 656.5C243 657.881 244.119 659 245.5 659Z" fill="#97B1A8" fill-opacity="0.4"/>
<path d="M245.5 849C246.881 849 248 847.881 248 846.5C248 845.119 246.881 844 245.5 844C244.119 844 243 845.119 243 846.5C243 847.881 244.119 849 245.5 849Z" fill="#97B1A8" fill-opacity="0.4"/>
<path d="M55.5 849C56.8807 849 58 847.881 58 846.5C58 845.119 56.8807 844 55.5 844C54.1193 844 53 845.119 53 846.5C53 847.881 54.1193 849 55.5 849Z" fill="#97B1A8" fill-opacity="0.4"/>
<path d="M245.5 279C246.881 279 248 277.881 248 276.5C248 275.119 246.881 274 245.5 274C244.119 274 243 275.119 243 276.5C243 277.881 244.119 279 245.5 279Z" fill="#97B1A8" fill-opacity="0.4"/>
<path d="M625.5 659C626.881 659 628 657.881 628 656.5C628 655.119 626.881 654 625.5 654C624.119 654 623 655.119 623 656.5C623 657.881 624.119 659 625.5 659Z" fill="#97B1A8" fill-opacity="0.4"/>
<path d="M625.5 849C626.881 849 628 847.881 628 846.5C628 845.119 626.881 844 625.5 844C624.119 844 623 845.119 623 846.5C623 847.881 624.119 849 625.5 849Z" fill="#97B1A8" fill-opacity="0.4"/>
<path d="M625.5 279C626.881 279 628 277.881 628 276.5C628 275.119 626.881 274 625.5 274C624.119 274 623 275.119 623 276.5C623 277.881 624.119 279 625.5 279Z" fill="#97B1A8" fill-opacity="0.4"/>
<path d="M815.5 469C816.881 469 818 467.881 818 466.5C818 465.119 816.881 464 815.5 464C814.119 464 813 465.119 813 466.5C813 467.881 814.119 469 815.5 469Z" fill="#97B1A8" fill-opacity="0.4"/>
<path d="M815.5 89C816.881 89 818 87.8807 818 86.5C818 85.1193 816.881 84 815.5 84C814.119 84 813 85.1193 813 86.5C813 87.8807 814.119 89 815.5 89Z" fill="#97B1A8" fill-opacity="0.4"/>
<path d="M1195.5 469C1196.88 469 1198 467.881 1198 466.5C1198 465.119 1196.88 464 1195.5 464C1194.12 464 1193 465.119 1193 466.5C1193 467.881 1194.12 469 1195.5 469Z" fill="#97B1A8" fill-opacity="0.4"/>
<path d="M1195.5 89C1196.88 89 1198 87.8807 1198 86.5C1198 85.1193 1196.88 84 1195.5 84C1194.12 84 1193 85.1193 1193 86.5C1193 87.8807 1194.12 89 1195.5 89Z" fill="#97B1A8" fill-opacity="0.4"/>
<path d="M815.5 659C816.881 659 818 657.881 818 656.5C818 655.119 816.881 654 815.5 654C814.119 654 813 655.119 813 656.5C813 657.881 814.119 659 815.5 659Z" fill="#97B1A8" fill-opacity="0.4"/>
<path d="M815.5 849C816.881 849 818 847.881 818 846.5C818 845.119 816.881 844 815.5 844C814.119 844 813 845.119 813 846.5C813 847.881 814.119 849 815.5 849Z" fill="#97B1A8" fill-opacity="0.4"/>
<path d="M815.5 279C816.881 279 818 277.881 818 276.5C818 275.119 816.881 274 815.5 274C814.119 274 813 275.119 813 276.5C813 277.881 814.119 279 815.5 279Z" fill="#97B1A8" fill-opacity="0.4"/>
<path d="M1195.5 659C1196.88 659 1198 657.881 1198 656.5C1198 655.119 1196.88 654 1195.5 654C1194.12 654 1193 655.119 1193 656.5C1193 657.881 1194.12 659 1195.5 659Z" fill="#97B1A8" fill-opacity="0.4"/>
<path d="M1195.5 849C1196.88 849 1198 847.881 1198 846.5C1198 845.119 1196.88 844 1195.5 844C1194.12 844 1193 845.119 1193 846.5C1193 847.881 1194.12 849 1195.5 849Z" fill="#97B1A8" fill-opacity="0.4"/>
<path d="M1195.5 279C1196.88 279 1198 277.881 1198 276.5C1198 275.119 1196.88 274 1195.5 274C1194.12 274 1193 275.119 1193 276.5C1193 277.881 1194.12 279 1195.5 279Z" fill="#97B1A8" fill-opacity="0.4"/>
<path d="M1005.5 469C1006.88 469 1008 467.881 1008 466.5C1008 465.119 1006.88 464 1005.5 464C1004.12 464 1003 465.119 1003 466.5C1003 467.881 1004.12 469 1005.5 469Z" fill="#97B1A8" fill-opacity="0.4"/>
<path d="M1005.5 89C1006.88 89 1008 87.8807 1008 86.5C1008 85.1193 1006.88 84 1005.5 84C1004.12 84 1003 85.1193 1003 86.5C1003 87.8807 1004.12 89 1005.5 89Z" fill="#97B1A8" fill-opacity="0.4"/>
<path d="M1385.5 469C1386.88 469 1388 467.881 1388 466.5C1388 465.119 1386.88 464 1385.5 464C1384.12 464 1383 465.119 1383 466.5C1383 467.881 1384.12 469 1385.5 469Z" fill="#97B1A8" fill-opacity="0.4"/>
<path d="M1385.5 89C1386.88 89 1388 87.8807 1388 86.5C1388 85.1193 1386.88 84 1385.5 84C1384.12 84 1383 85.1193 1383 86.5C1383 87.8807 1384.12 89 1385.5 89Z" fill="#97B1A8" fill-opacity="0.4"/>
<path d="M1005.5 659C1006.88 659 1008 657.881 1008 656.5C1008 655.119 1006.88 654 1005.5 654C1004.12 654 1003 655.119 1003 656.5C1003 657.881 1004.12 659 1005.5 659Z" fill="#97B1A8" fill-opacity="0.4"/>
<path d="M1005.5 849C1006.88 849 1008 847.881 1008 846.5C1008 845.119 1006.88 844 1005.5 844C1004.12 844 1003 845.119 1003 846.5C1003 847.881 1004.12 849 1005.5 849Z" fill="#97B1A8" fill-opacity="0.4"/>
<path d="M1005.5 279C1006.88 279 1008 277.881 1008 276.5C1008 275.119 1006.88 274 1005.5 274C1004.12 274 1003 275.119 1003 276.5C1003 277.881 1004.12 279 1005.5 279Z" fill="#97B1A8" fill-opacity="0.4"/>
<path d="M1385.5 659C1386.88 659 1388 657.881 1388 656.5C1388 655.119 1386.88 654 1385.5 654C1384.12 654 1383 655.119 1383 656.5C1383 657.881 1384.12 659 1385.5 659Z" fill="#97B1A8" fill-opacity="0.4"/>
<path d="M1385.5 849C1386.88 849 1388 847.881 1388 846.5C1388 845.119 1386.88 844 1385.5 844C1384.12 844 1383 845.119 1383 846.5C1383 847.881 1384.12 849 1385.5 849Z" fill="#97B1A8" fill-opacity="0.4"/>
<path d="M1385.5 279C1386.88 279 1388 277.881 1388 276.5C1388 275.119 1386.88 274 1385.5 274C1384.12 274 1383 275.119 1383 276.5C1383 277.881 1384.12 279 1385.5 279Z" fill="#97B1A8" fill-opacity="0.4"/>
</svg>
