<svg width="40" height="38" viewBox="0 0 40 38" fill="none" xmlns="http://www.w3.org/2000/svg">
<path fill-rule="evenodd" clip-rule="evenodd" d="M19.52 1.69987C9.67053 1.69987 1.69661 9.63312 1.69661 19.4029C1.69661 26.5765 5.99589 32.7497 12.1837 35.5264C12.8311 35.8176 13.4639 35.7021 13.9584 35.3312C14.2319 35.1182 14.4524 34.8448 14.6025 34.5324C14.7526 34.22 14.8284 33.8771 14.8238 33.5305V32.6033L12.6164 32.304C12.6001 32.3018 12.5838 32.2991 12.5676 32.2958C11.3509 32.0583 10.5294 31.6305 9.92755 31.014C9.42165 30.4951 9.11259 29.8737 8.85069 29.3467L8.7596 29.1629C8.51755 28.658 8.25322 28.1641 7.96741 27.6826C7.74781 27.3345 7.57701 27.1556 7.40784 27.0433C6.9784 26.7587 6.56523 26.2755 6.56523 25.6721C6.56376 25.4984 6.60095 25.3265 6.6741 25.169C6.74724 25.0114 6.85452 24.8721 6.98816 24.7611C7.24038 24.5614 7.55472 24.4566 7.87632 24.4651C8.23744 24.4651 8.57741 24.5757 8.86045 24.7026C9.15 24.8327 9.43792 25.0051 9.70632 25.1841C10.3602 25.62 11.0044 26.1357 11.5493 26.7717C12.117 27.4321 12.5188 27.8518 13.1239 27.938C13.6217 28.0096 14.1292 28.0112 14.5245 27.9933C14.5794 27.6803 14.67 27.3747 14.7945 27.0824C14.3118 26.9697 13.8355 26.8307 13.3679 26.6659C12.3041 26.2886 11.1183 25.7013 10.3212 24.8115C9.44605 23.8323 8.90437 22.9588 8.60181 21.9372C8.30739 20.9417 8.25859 19.8632 8.25859 18.5359C8.25859 16.5025 9.13861 14.7897 9.79904 13.8803C9.5453 13.0843 9.36294 12.2672 9.25411 11.4387C9.18203 10.9163 9.18258 10.3864 9.25573 9.86411C9.33707 9.38749 9.5404 8.80189 10.0756 8.44891C10.5912 8.10568 11.1963 8.12032 11.6681 8.20816C12.1577 8.30088 12.6669 8.50421 13.1353 8.73683C13.8982 9.11421 14.6563 9.61848 15.224 10.0463C16.2032 9.75837 17.9356 9.38749 19.5021 9.35333H19.5379C21.106 9.38749 22.7603 9.75837 23.7152 10.0447C24.2845 9.61848 25.0409 9.11259 25.8022 8.73683C26.2707 8.50421 26.7782 8.30088 27.2694 8.20816C27.7412 8.12032 28.3463 8.10568 28.8636 8.44728C29.3971 8.80189 29.6021 9.38749 29.6818 9.86411C29.7647 10.3602 29.7452 10.9149 29.6818 11.4387C29.5734 12.2671 29.3916 13.0842 29.1385 13.8803C29.7989 14.7913 30.6789 16.5042 30.6789 18.5359C30.6789 19.8632 30.6301 20.9417 30.3373 21.9356C30.0331 22.9604 29.4915 23.8323 28.6163 24.8115C27.8193 25.7013 26.6334 26.2886 25.5696 26.6659C25.0049 26.8644 24.4278 27.0258 23.8421 27.1491C24.0421 27.7542 24.1137 28.2438 24.1137 28.5252V33.5516C24.1137 34.3162 24.4699 34.9685 24.9758 35.3491C25.4671 35.7216 26.0982 35.8371 26.7457 35.5541C32.9921 32.8017 37.3418 26.6123 37.3418 19.4013C37.3418 9.63312 29.3711 1.69987 19.52 1.69987ZM15.4143 29.6216C14.9914 29.6818 15.4127 29.6216 15.4127 29.6216H15.4078L15.3948 29.6249L15.3476 29.6314C15.106 29.6597 14.8635 29.6798 14.6205 29.6915C14.1618 29.7127 13.5322 29.7143 12.8865 29.6216C11.5998 29.4394 10.8173 28.5285 10.3114 27.9364L10.2626 27.8811C10.0972 27.6892 9.91956 27.5082 9.73072 27.3394C9.89827 27.6484 10.0723 27.9933 10.2594 28.3642L10.2757 28.3967L10.3586 28.5659C10.6433 29.132 10.8303 29.5094 11.141 29.8249C11.4436 30.134 11.9153 30.4333 12.8686 30.622L15.7868 31.0173C15.9906 31.0449 16.1775 31.1455 16.3127 31.3005C16.448 31.4554 16.5223 31.6542 16.5221 31.8599V33.5305C16.5221 34.8318 15.9121 35.9916 14.9767 36.6943C14.4856 37.0696 13.9015 37.3036 13.2872 37.3713C12.6729 37.4389 12.0517 37.3376 11.4908 37.0782C4.72059 34.0413 0 27.2792 0 19.4029C0 8.67989 8.74659 0 19.52 0C30.2934 0 39.04 8.67989 39.04 19.4029C39.04 27.3199 34.2592 34.0998 27.4305 37.1108C26.8691 37.3652 26.249 37.4622 25.6367 37.3915C25.0244 37.3207 24.4429 37.0848 23.9543 36.709C23.4712 36.3371 23.0809 35.8583 22.8139 35.3102C22.5469 34.7621 22.4105 34.1596 22.4155 33.55V28.5236C22.4155 28.4097 22.3358 27.7526 21.8917 26.8693C21.8304 26.7468 21.7995 26.6114 21.8017 26.4744C21.8038 26.3375 21.8389 26.2031 21.904 26.0826C21.9692 25.9621 22.0623 25.859 22.1757 25.7822C22.2891 25.7054 22.4193 25.657 22.5554 25.6411C23.1133 25.5793 24.0535 25.3988 25.0019 25.0621C25.9681 24.7205 26.8351 24.252 27.3508 23.6761C28.1169 22.8205 28.4992 22.1633 28.709 21.4525C28.927 20.7156 28.9823 19.8583 28.9823 18.5359C28.9823 16.6798 28.0063 15.1199 27.5574 14.6172C27.4554 14.5036 27.386 14.3647 27.3562 14.215C27.3264 14.0654 27.3375 13.9104 27.3882 13.7665C27.6159 13.1256 27.8925 12.1284 27.9982 11.2386C28.0502 10.7913 28.0535 10.4172 28.0079 10.1471C27.9977 10.0484 27.9679 9.95273 27.9201 9.86573C27.8081 9.84635 27.6933 9.85135 27.5834 9.88037C27.3069 9.93243 26.9539 10.0626 26.5537 10.261C25.7566 10.6547 24.927 11.237 24.413 11.6534C24.2997 11.7454 24.1644 11.8065 24.0205 11.8307C23.8765 11.8549 23.7288 11.8415 23.5915 11.7917C22.2745 11.3609 20.9045 11.1129 19.52 11.0548C17.8819 11.0939 15.9918 11.5591 15.346 11.7917C15.2088 11.8415 15.061 11.8549 14.917 11.8307C14.7731 11.8065 14.6379 11.7454 14.5245 11.6534C13.8597 11.1183 13.1425 10.6517 12.3838 10.261C12.058 10.0899 11.7113 9.96197 11.3525 9.88037C11.2431 9.85158 11.1289 9.84659 11.0174 9.86573C10.9696 9.95272 10.9397 10.0484 10.9296 10.1471C10.884 10.4172 10.8873 10.7913 10.9393 11.2386C11.0451 12.1284 11.3232 13.1256 11.5493 13.7665C11.6518 14.0593 11.5884 14.3846 11.3802 14.6172C10.9312 15.1199 9.9552 16.6798 9.9552 18.5359C9.9552 19.8567 10.0105 20.7156 10.2285 21.4525C10.4399 22.1633 10.8206 22.8189 11.5851 23.6761C12.1024 24.252 12.9678 24.7205 13.9357 25.0621C14.7275 25.3423 15.5472 25.5364 16.3805 25.6411C16.552 25.6595 16.7138 25.7297 16.8444 25.8423C16.975 25.9549 17.0682 26.1046 17.1117 26.2715C17.1551 26.4384 17.1467 26.6145 17.0876 26.7765C17.0285 26.9385 16.9214 27.0787 16.7807 27.1783C16.5123 27.3703 16.335 27.7151 16.2358 28.1137C16.1845 28.3189 16.154 28.5287 16.1447 28.7399V28.7709C16.1467 28.9771 16.0738 29.1771 15.9395 29.3336C15.8051 29.4901 15.6185 29.5924 15.4143 29.6216V29.6216Z" fill="#474A51"/>
</svg>
