<svg width="40" height="40" viewBox="0 0 40 40" fill="none" xmlns="http://www.w3.org/2000/svg">
<path d="M19.5132 9.98534C13.9712 9.98534 9.49852 14.458 9.49852 20C9.49852 25.542 13.9712 30.0146 19.5132 30.0146C25.0552 30.0146 29.5278 25.542 29.5278 20C29.5278 14.458 25.0552 9.98534 19.5132 9.98534ZM19.5132 26.5088C15.9292 26.5088 13.0044 23.584 13.0044 20C13.0044 16.416 15.9292 13.4912 19.5132 13.4912C23.0972 13.4912 26.022 16.416 26.022 20C26.022 23.584 23.0972 26.5088 19.5132 26.5088ZM29.938 7.2412C28.644 7.2412 27.5991 8.28612 27.5991 9.58007C27.5991 10.874 28.644 11.9189 29.938 11.9189C31.2319 11.9189 32.2768 10.8789 32.2768 9.58007C32.2772 9.27281 32.217 8.9685 32.0996 8.68456C31.9822 8.40063 31.8099 8.14264 31.5927 7.92538C31.3754 7.70812 31.1174 7.53585 30.8335 7.41845C30.5495 7.30105 30.2452 7.24081 29.938 7.2412ZM39.0347 20C39.0347 17.3047 39.0591 14.6338 38.9077 11.9433C38.7563 8.81835 38.0434 6.04491 35.7583 3.75975C33.4683 1.46971 30.6997 0.761706 27.5747 0.610339C24.8794 0.458972 22.2085 0.483386 19.5181 0.483386C16.8227 0.483386 14.1518 0.458972 11.4614 0.610339C8.33641 0.761706 5.56298 1.4746 3.27782 3.75975C0.98778 6.04979 0.279773 8.81835 0.128405 11.9433C-0.0229618 14.6387 0.00145236 17.3096 0.00145236 20C0.00145236 22.6904 -0.0229618 25.3662 0.128405 28.0566C0.279773 31.1816 0.992663 33.9551 3.27782 36.2402C5.56786 38.5303 8.33641 39.2383 11.4614 39.3896C14.1567 39.541 16.8276 39.5166 19.5181 39.5166C22.2134 39.5166 24.8843 39.541 27.5747 39.3896C30.6997 39.2383 33.4731 38.5254 35.7583 36.2402C38.0483 33.9502 38.7563 31.1816 38.9077 28.0566C39.064 25.3662 39.0347 22.6953 39.0347 20ZM34.7378 31.5137C34.3813 32.4023 33.9516 33.0664 33.2632 33.75C32.5747 34.4385 31.9155 34.8682 31.0268 35.2246C28.4585 36.2451 22.3598 36.0156 19.5132 36.0156C16.6665 36.0156 10.563 36.2451 7.99462 35.2295C7.10594 34.873 6.44188 34.4433 5.75829 33.7549C5.06981 33.0664 4.64012 32.4072 4.28368 31.5185C3.26805 28.9453 3.49755 22.8467 3.49755 20C3.49755 17.1533 3.26805 11.0498 4.28368 8.48143C4.64012 7.59276 5.06981 6.9287 5.75829 6.24511C6.44676 5.56151 7.10594 5.12694 7.99462 4.7705C10.563 3.75487 16.6665 3.98436 19.5132 3.98436C22.3598 3.98436 28.4634 3.75487 31.0317 4.7705C31.9204 5.12694 32.5845 5.55663 33.2681 6.24511C33.9565 6.93358 34.3862 7.59276 34.7427 8.48143C35.7583 11.0498 35.5288 17.1533 35.5288 20C35.5288 22.8467 35.7583 28.9453 34.7378 31.5137Z" fill="#474A51"/>
</svg>
