<svg width="40" height="40" viewBox="0 0 40 40" fill="none" xmlns="http://www.w3.org/2000/svg">
<path d="M35.9022 0H3.13784C1.40544 0 0 1.40544 0 3.13784V35.9022C0 37.6346 1.40544 39.04 3.13784 39.04H35.9022C37.6346 39.04 39.04 37.6346 39.04 35.9022V3.13784C39.04 1.40544 37.6346 0 35.9022 0V0ZM35.9022 35.9168C14.0495 35.9119 3.1232 35.907 3.1232 35.9022C3.12808 14.0495 3.13296 3.1232 3.13784 3.1232C24.9905 3.12808 35.9168 3.13296 35.9168 3.13784C35.9119 24.9905 35.907 35.9168 35.9022 35.9168ZM5.78768 14.6351H11.5802V33.267H5.78768V14.6351ZM8.6864 12.0878C10.5359 12.0878 12.0438 10.5847 12.0438 8.73032C12.0438 8.28941 11.957 7.85283 11.7883 7.44548C11.6195 7.03814 11.3722 6.66802 11.0605 6.35625C10.7487 6.04448 10.3786 5.79718 9.97124 5.62845C9.56389 5.45972 9.12731 5.37288 8.6864 5.37288C8.2455 5.37288 7.80891 5.45972 7.40156 5.62845C6.99422 5.79718 6.6241 6.04448 6.31233 6.35625C6.00056 6.66802 5.75326 7.03814 5.58453 7.44548C5.4158 7.85283 5.32896 8.28941 5.32896 8.73032C5.32408 10.5847 6.82712 12.0878 8.6864 12.0878ZM20.9986 24.0486C20.9986 21.6184 21.4622 19.2662 24.4732 19.2662C27.4402 19.2662 27.4842 22.043 27.4842 24.2048V33.267H33.2718V23.0482C33.2718 18.0316 32.1885 14.1715 26.3276 14.1715C23.5118 14.1715 21.6233 15.7185 20.8474 17.1825H20.7693V14.6351H15.211V33.267H20.9986V24.0486Z" fill="#474A51"/>
</svg>
